<?xml version="1.0" encoding="UTF-8" standalone="no"?>
<svg
   xmlns:dc="http://purl.org/dc/elements/1.1/"
   xmlns:cc="http://creativecommons.org/ns#"
   xmlns:rdf="http://www.w3.org/1999/02/22-rdf-syntax-ns#"
   xmlns:svg="http://www.w3.org/2000/svg"
   xmlns="http://www.w3.org/2000/svg"
   height="95.900002"
   width="382.60001"
   xml:space="preserve"
   viewBox="0 0 382.6 95.900003"
   y="0px"
   x="0px"
   id="Livello_1"
   version="1.1"><metadata
   id="metadata110"><rdf:RDF><cc:Work
       rdf:about=""><dc:format>image/svg+xml</dc:format><dc:type
         rdf:resource="http://purl.org/dc/dcmitype/StillImage" /><dc:title></dc:title></cc:Work></rdf:RDF></metadata><defs
   id="defs108" />
<style
   id="style79"
   type="text/css">
	.st0{fill:#057A96;}
	.st1{fill:#0E2639;}
	.st2{fill:#00C7C7;}
	.st3{fill:#F6BE00;}
</style>
<g
   transform="translate(-229.7,-249.6)"
   id="g89">
	<path
   id="path81"
   d="m 325.4,296.7 c 0,0.3 0,0.6 0,0.9 0,0.3 0,0.6 0,0.9 -0.2,8.8 -2.7,17.1 -7.1,24.2 -0.2,0.3 -0.3,0.5 -0.5,0.8 -0.2,0.4 -0.5,0.8 -0.7,1.1 -0.3,0.5 -0.6,0.9 -1,1.4 -0.4,0.5 -0.8,1 -1.2,1.5 -0.1,0.2 -0.3,0.3 -0.4,0.5 -0.2,0.2 -0.3,0.4 -0.5,0.6 -0.2,0.3 -0.5,0.6 -0.7,0.8 -0.3,0.3 -0.5,0.6 -0.8,0.8 -0.3,0.3 -0.5,0.5 -0.8,0.8 -2.6,2.7 -5.5,5.1 -8.7,7.1 -0.3,0.2 -0.6,0.4 -1,0.6 -3.6,2.2 -7.5,3.8 -11.6,5 -0.3,0.1 -0.6,0.2 -0.9,0.2 -0.6,0.2 -1.2,0.3 -1.8,0.4 -0.4,0.1 -0.8,0.2 -1.1,0.2 -2.7,0.5 -5.4,0.8 -8.2,0.9 12.6,-0.3 23.6,-7.1 29.8,-17.2 3.3,-5.5 5.3,-11.9 5.3,-18.7 0,-4.2 -0.7,-8.2 -2,-12 -2.8,-7.8 -8.2,-14.4 -15.2,-18.7 -5.3,-3.2 -11.5,-5.1 -18.1,-5.2 -0.2,0 -0.4,0 -0.6,0 -0.2,0 -0.4,0 -0.6,0 -12.7,0.3 -23,10.6 -23.3,23.3 0.1,-6.6 2,-12.8 5.2,-18.1 4.3,-7 10.9,-12.4 18.7,-15.2 3.7,-1.3 7.8,-2 12,-2 6.9,0 13.3,1.9 18.7,5.3 10,6.2 16.8,17.2 17.1,29.8 z"
   class="st0" />
	<path
   id="path83"
   d="m 325.4,296.7 c -0.3,-12.6 -7.1,-23.6 -17.2,-29.8 -5.5,-3.3 -11.9,-5.3 -18.7,-5.3 -4.2,0 -8.2,0.7 -12,2 -7.8,2.8 -14.4,8.2 -18.7,15.2 -3.2,5.3 -5.1,11.5 -5.2,18.1 0,0.2 0,0.4 0,0.6 0,0.2 0,0.4 0,0.6 0.2,6.6 3,12.5 7.4,16.7 0.3,0.3 0.5,0.5 0.8,0.8 0.3,0.2 0.6,0.5 0.9,0.7 1.5,1.2 3,2.1 4.8,2.9 1.5,0.7 3.2,1.3 4.8,1.6 1.4,0.3 2.9,0.5 4.4,0.6 -6.5,-0.2 -12.6,-2.1 -17.8,-5.2 -7,-4.3 -12.4,-10.9 -15.2,-18.7 -1.3,-3.7 -2,-7.8 -2,-12 0,-6.9 1.9,-13.3 5.3,-18.7 6.2,-10.1 17.2,-16.9 29.8,-17.2 0.3,0 0.6,0 0.9,0 0.3,0 0.6,0 0.9,0 12.9,0.2 24.5,5.6 33,14 0.5,0.5 1,1.1 1.6,1.6 0.4,0.4 0.7,0.8 1.1,1.3 0.1,0.1 0.2,0.3 0.4,0.4 0.2,0.3 0.5,0.6 0.7,0.9 0.2,0.3 0.5,0.6 0.7,0.9 0.4,0.6 0.9,1.2 1.3,1.8 0.2,0.3 0.4,0.6 0.6,0.9 0.2,0.3 0.4,0.6 0.6,1 0.2,0.3 0.4,0.6 0.6,1 3.7,7 6.1,14.9 6.2,23.3 z"
   class="st1" />
	<path
   id="path85"
   d="m 311.4,297.6 c 1.3,3.7 2,7.8 2,12 0,6.9 -1.9,13.3 -5.3,18.7 -6.2,10.1 -17.2,16.9 -29.8,17.2 -0.3,0 -0.6,0 -0.9,0 -0.3,0 -0.6,0 -0.9,0 -2.8,-0.1 -5.6,-0.3 -8.2,-0.9 -0.4,-0.1 -0.8,-0.2 -1.1,-0.2 -0.6,-0.1 -1.1,-0.3 -1.7,-0.4 -0.4,-0.1 -0.7,-0.2 -1.1,-0.3 -1.5,-0.4 -2.9,-0.9 -4.4,-1.5 -0.5,-0.2 -1.1,-0.4 -1.6,-0.7 -0.2,-0.1 -0.3,-0.2 -0.5,-0.2 -0.3,-0.2 -0.7,-0.3 -1,-0.5 -0.3,-0.2 -0.7,-0.3 -1,-0.5 -0.3,-0.2 -0.7,-0.3 -1,-0.5 -0.2,-0.1 -0.3,-0.2 -0.5,-0.3 -0.3,-0.2 -0.7,-0.4 -1,-0.6 -0.6,-0.4 -1.3,-0.8 -1.9,-1.2 -1.6,-1 -3.1,-2.1 -4.5,-3.3 -1.2,-1 -2.3,-2 -3.3,-3 -8.5,-8.5 -13.8,-20.1 -14,-33 0.3,12.6 7.1,23.6 17.2,29.8 5.5,3.3 11.9,5.3 18.7,5.3 4.2,0 8.2,-0.7 12,-2 7.8,-2.8 14.4,-8.2 18.7,-15.2 3.2,-5.2 5.1,-11.3 5.2,-17.8 0,-0.1 0,-0.2 0,-0.3 0,-0.2 0,-0.4 0,-0.6 0,-0.2 0,-0.4 0,-0.6 -0.1,-3.4 -0.9,-6.6 -2.2,-9.5 -0.8,-1.7 -1.8,-3.3 -2.9,-4.8 -0.2,-0.3 -0.5,-0.6 -0.7,-0.9 -0.2,-0.3 -0.5,-0.6 -0.8,-0.8 -4.2,-4.4 -10.1,-7.2 -16.7,-7.4 6.6,0.1 12.8,2 18.1,5.2 6.9,4.4 12.4,11 15.1,18.8 z"
   class="st2" />
	<path
   id="path87"
   d="m 301.5,298.5 c -0.2,6.5 -2.1,12.6 -5.2,17.8 -4.3,7 -10.9,12.4 -18.7,15.2 -3.7,1.3 -7.8,2 -12,2 -6.9,0 -13.3,-1.9 -18.7,-5.3 C 236.8,322 230,311 229.7,298.4 c 0,-0.3 0,-0.6 0,-0.9 0,-0.3 0,-0.6 0,-0.9 0.5,-25.7 21.3,-46.5 47,-47 -12.6,0.3 -23.6,7.1 -29.8,17.2 -3.3,5.5 -5.3,11.9 -5.3,18.7 0,4.2 0.7,8.2 2,12 2.8,7.8 8.2,14.4 15.2,18.7 5.2,3.2 11.3,5.1 17.8,5.2 0.1,0 0.2,0 0.3,0 0.2,0 0.4,0 0.6,0 0.2,0 0.4,0 0.6,0 1.6,0 3.1,-0.2 4.6,-0.6 1.7,-0.4 3.3,-0.9 4.8,-1.6 1.7,-0.8 3.3,-1.8 4.8,-2.9 0.3,-0.2 0.6,-0.5 0.9,-0.7 0.3,-0.2 0.6,-0.5 0.8,-0.8 0.3,-0.3 0.5,-0.5 0.8,-0.8 0.3,-0.3 0.5,-0.5 0.8,-0.8 0.2,-0.3 0.5,-0.6 0.7,-0.9 1.2,-1.5 2.1,-3 2.9,-4.8 1.4,-2.6 2.2,-5.7 2.3,-9 z"
   class="st3" />
</g>
<g
   transform="translate(-229.7,-249.6)"
   id="g103">
	<path
   id="path91"
   d="m 413.2,319.1 c -7.7,9.5 -17.8,14.5 -28.9,14.5 -18.5,0 -35.9,-15.7 -35.9,-36 0,-18.9 15.7,-35.9 35.9,-35.9 11.7,0 21.1,5.1 26.5,12.2 l -9.4,7.6 c -4.2,-4.6 -10.1,-8.4 -17.1,-8.4 -11.9,0 -23.9,11 -23.9,24.5 0,13.7 10.2,24.6 23.9,24.6 6.8,0 13.5,-3.2 17.5,-7.7 v -11.4 h -17.5 v -11 h 28.9 z"
   class="st1" />
	<path
   id="path93"
   d="m 438.3,268.8 c 0,4 -3.2,7.4 -7.2,7.4 -4,0 -7.2,-3.4 -7.2,-7.4 0,-4 3.2,-7 7.2,-7 4,0 7.2,3 7.2,7 z m -12.6,63.6 v -44 h 10.8 v 44 z"
   class="st1" />
	<path
   id="path95"
   d="m 494.7,310.3 c 0,12.7 -10.9,23.2 -23.6,23.2 -12.7,0 -23.6,-10.5 -23.6,-23.2 0,-12.7 10.9,-23.2 23.6,-23.2 12.7,0 23.6,10.5 23.6,23.2 z m -36.6,0 c 0,7 6.1,13 13,13 6.9,0 13,-6 13,-13 0,-7 -6.1,-13 -13,-13 -6.9,0 -13,6 -13,13 z"
   class="st1" />
	<path
   id="path97"
   d="m 528.8,288.2 v 9.6 h -10.7 v 34.4 h -10.8 v -34.4 h -8.5 l 19.3,-27.5 v 17.9 z"
   class="st1" />
	<path
   id="path99"
   d="m 560.1,288.2 v 9.6 h -10.7 v 34.4 h -10.8 v -34.4 h -8.5 l 19.3,-27.5 v 17.9 z"
   class="st1" />
	<path
   id="path101"
   d="m 612.3,310.2 c 0,12.7 -10.9,23.2 -23.6,23.2 -12.7,0 -23.6,-10.5 -23.6,-23.2 0,-12.7 10.9,-23.2 23.6,-23.2 12.6,0 23.6,10.5 23.6,23.2 z m -36.6,0 c 0,7 6.1,13 13,13 6.9,0 13,-6 13,-13 0,-7 -6.1,-13 -13,-13 -7,0 -13,6 -13,13 z"
   class="st1" />
</g>
</svg>
