<?xml version="1.0" encoding="utf-8"?>
<!-- Generator: Adobe Illustrator 22.1.0, SVG Export Plug-In . SVG Version: 6.00 Build 0)  -->
<svg version="1.1" id="Livello_1" xmlns="http://www.w3.org/2000/svg" xmlns:xlink="http://www.w3.org/1999/xlink" x="0px" y="0px"
	 viewBox="0 0 841.9 595.3" style="enable-background:new 0 0 841.9 595.3;" xml:space="preserve">
<style type="text/css">
	.st0{fill:#057A96;}
	.st1{fill:#0E2639;}
	.st2{fill:#00C7C7;}
	.st3{fill:#F6BE00;}
</style>
<g>
	<path class="st0" d="M325.4,296.7c0,0.3,0,0.6,0,0.9c0,0.3,0,0.6,0,0.9c-0.2,8.8-2.7,17.1-7.1,24.2c-0.2,0.3-0.3,0.5-0.5,0.8
		c-0.2,0.4-0.5,0.8-0.7,1.1c-0.3,0.5-0.6,0.9-1,1.4c-0.4,0.5-0.8,1-1.2,1.5c-0.1,0.2-0.3,0.3-0.4,0.5c-0.2,0.2-0.3,0.4-0.5,0.6
		c-0.2,0.3-0.5,0.6-0.7,0.8c-0.3,0.3-0.5,0.6-0.8,0.8c-0.3,0.3-0.5,0.5-0.8,0.8c-2.6,2.7-5.5,5.1-8.7,7.1c-0.3,0.2-0.6,0.4-1,0.6
		c-3.6,2.2-7.5,3.8-11.6,5c-0.3,0.1-0.6,0.2-0.9,0.2c-0.6,0.2-1.2,0.3-1.8,0.4c-0.4,0.1-0.8,0.2-1.1,0.2c-2.7,0.5-5.4,0.8-8.2,0.9
		c12.6-0.3,23.6-7.1,29.8-17.2c3.3-5.5,5.3-11.9,5.3-18.7c0-4.2-0.7-8.2-2-12c-2.8-7.8-8.2-14.4-15.2-18.7
		c-5.3-3.2-11.5-5.1-18.1-5.2c-0.2,0-0.4,0-0.6,0s-0.4,0-0.6,0c-12.7,0.3-23,10.6-23.3,23.3c0.1-6.6,2-12.8,5.2-18.1
		c4.3-7,10.9-12.4,18.7-15.2c3.7-1.3,7.8-2,12-2c6.9,0,13.3,1.9,18.7,5.3C318.3,273.1,325.1,284.1,325.4,296.7z"/>
	<path class="st1" d="M325.4,296.7c-0.3-12.6-7.1-23.6-17.2-29.8c-5.5-3.3-11.9-5.3-18.7-5.3c-4.2,0-8.2,0.7-12,2
		c-7.8,2.8-14.4,8.2-18.7,15.2c-3.2,5.3-5.1,11.5-5.2,18.1c0,0.2,0,0.4,0,0.6s0,0.4,0,0.6c0.2,6.6,3,12.5,7.4,16.7
		c0.3,0.3,0.5,0.5,0.8,0.8c0.3,0.2,0.6,0.5,0.9,0.7c1.5,1.2,3,2.1,4.8,2.9c1.5,0.7,3.2,1.3,4.8,1.6c1.4,0.3,2.9,0.5,4.4,0.6
		c-6.5-0.2-12.6-2.1-17.8-5.2c-7-4.3-12.4-10.9-15.2-18.7c-1.3-3.7-2-7.8-2-12c0-6.9,1.9-13.3,5.3-18.7
		c6.2-10.1,17.2-16.9,29.8-17.2c0.3,0,0.6,0,0.9,0c0.3,0,0.6,0,0.9,0c12.9,0.2,24.5,5.6,33,14c0.5,0.5,1,1.1,1.6,1.6
		c0.4,0.4,0.7,0.8,1.1,1.3c0.1,0.1,0.2,0.3,0.4,0.4c0.2,0.3,0.5,0.6,0.7,0.9c0.2,0.3,0.5,0.6,0.7,0.9c0.4,0.6,0.9,1.2,1.3,1.8
		c0.2,0.3,0.4,0.6,0.6,0.9c0.2,0.3,0.4,0.6,0.6,1c0.2,0.3,0.4,0.6,0.6,1C322.9,280.4,325.3,288.3,325.4,296.7z"/>
	<path class="st2" d="M311.4,297.6c1.3,3.7,2,7.8,2,12c0,6.9-1.9,13.3-5.3,18.7c-6.2,10.1-17.2,16.9-29.8,17.2c-0.3,0-0.6,0-0.9,0
		c-0.3,0-0.6,0-0.9,0c-2.8-0.1-5.6-0.3-8.2-0.9c-0.4-0.1-0.8-0.2-1.1-0.2c-0.6-0.1-1.1-0.3-1.7-0.4c-0.4-0.1-0.7-0.2-1.1-0.3
		c-1.5-0.4-2.9-0.9-4.4-1.5c-0.5-0.2-1.1-0.4-1.6-0.7c-0.2-0.1-0.3-0.2-0.5-0.2c-0.3-0.2-0.7-0.3-1-0.5c-0.3-0.2-0.7-0.3-1-0.5
		c-0.3-0.2-0.7-0.3-1-0.5c-0.2-0.1-0.3-0.2-0.5-0.3c-0.3-0.2-0.7-0.4-1-0.6c-0.6-0.4-1.3-0.8-1.9-1.2c-1.6-1-3.1-2.1-4.5-3.3
		c-1.2-1-2.3-2-3.3-3c-8.5-8.5-13.8-20.1-14-33c0.3,12.6,7.1,23.6,17.2,29.8c5.5,3.3,11.9,5.3,18.7,5.3c4.2,0,8.2-0.7,12-2
		c7.8-2.8,14.4-8.2,18.7-15.2c3.2-5.2,5.1-11.3,5.2-17.8c0-0.1,0-0.2,0-0.3c0-0.2,0-0.4,0-0.6s0-0.4,0-0.6c-0.1-3.4-0.9-6.6-2.2-9.5
		c-0.8-1.7-1.8-3.3-2.9-4.8c-0.2-0.3-0.5-0.6-0.7-0.9c-0.2-0.3-0.5-0.6-0.8-0.8c-4.2-4.4-10.1-7.2-16.7-7.4c6.6,0.1,12.8,2,18.1,5.2
		C303.2,283.2,308.7,289.8,311.4,297.6z"/>
	<path class="st3" d="M301.5,298.5c-0.2,6.5-2.1,12.6-5.2,17.8c-4.3,7-10.9,12.4-18.7,15.2c-3.7,1.3-7.8,2-12,2
		c-6.9,0-13.3-1.9-18.7-5.3c-10.1-6.2-16.9-17.2-17.2-29.8c0-0.3,0-0.6,0-0.9c0-0.3,0-0.6,0-0.9c0.5-25.7,21.3-46.5,47-47
		c-12.6,0.3-23.6,7.1-29.8,17.2c-3.3,5.5-5.3,11.9-5.3,18.7c0,4.2,0.7,8.2,2,12c2.8,7.8,8.2,14.4,15.2,18.7
		c5.2,3.2,11.3,5.1,17.8,5.2c0.1,0,0.2,0,0.3,0c0.2,0,0.4,0,0.6,0s0.4,0,0.6,0c1.6,0,3.1-0.2,4.6-0.6c1.7-0.4,3.3-0.9,4.8-1.6
		c1.7-0.8,3.3-1.8,4.8-2.9c0.3-0.2,0.6-0.5,0.9-0.7c0.3-0.2,0.6-0.5,0.8-0.8c0.3-0.3,0.5-0.5,0.8-0.8c0.3-0.3,0.5-0.5,0.8-0.8
		c0.2-0.3,0.5-0.6,0.7-0.9c1.2-1.5,2.1-3,2.9-4.8C300.6,304.9,301.4,301.8,301.5,298.5z"/>
</g>
<g>
	<path class="st1" d="M413.2,319.1c-7.7,9.5-17.8,14.5-28.9,14.5c-18.5,0-35.9-15.7-35.9-36c0-18.9,15.7-35.9,35.9-35.9
		c11.7,0,21.1,5.1,26.5,12.2l-9.4,7.6c-4.2-4.6-10.1-8.4-17.1-8.4c-11.9,0-23.9,11-23.9,24.5c0,13.7,10.2,24.6,23.9,24.6
		c6.8,0,13.5-3.2,17.5-7.7l0-11.4l-17.5,0l0-11l28.9,0L413.2,319.1z"/>
	<path class="st1" d="M438.3,268.8c0,4-3.2,7.4-7.2,7.4c-4,0-7.2-3.4-7.2-7.4c0-4,3.2-7,7.2-7C435.1,261.8,438.3,264.8,438.3,268.8z
		 M425.7,332.4l0-44l10.8,0l0,44L425.7,332.4z"/>
	<path class="st1" d="M494.7,310.3c0,12.7-10.9,23.2-23.6,23.2c-12.7,0-23.6-10.5-23.6-23.2c0-12.7,10.9-23.2,23.6-23.2
		C483.8,287.1,494.7,297.6,494.7,310.3z M458.1,310.3c0,7,6.1,13,13,13c6.9,0,13-6,13-13c0-7-6.1-13-13-13
		C464.2,297.3,458.1,303.3,458.1,310.3z"/>
	<path class="st1" d="M528.8,288.2l0,9.6l-10.7,0l0,34.4l-10.8,0l0-34.4l-8.5,0l19.3-27.5l0,17.9L528.8,288.2z"/>
	<path class="st1" d="M560.1,288.2l0,9.6l-10.7,0l0,34.4l-10.8,0l0-34.4l-8.5,0l19.3-27.5l0,17.9L560.1,288.2z"/>
	<path class="st1" d="M612.3,310.2c0,12.7-10.9,23.2-23.6,23.2c-12.7,0-23.6-10.5-23.6-23.2c0-12.7,10.9-23.2,23.6-23.2
		C601.3,287,612.3,297.5,612.3,310.2z M575.7,310.2c0,7,6.1,13,13,13c6.9,0,13-6,13-13c0-7-6.1-13-13-13
		C581.7,297.2,575.7,303.2,575.7,310.2z"/>
</g>
</svg>
